# xmcd CD database file
#
# Track frame offsets:
#	150
#	18700
#	37175
#	50922
#	60447
#	83955
#	94520
#	117222
#	135175
#	153775
#	172380
#	182400
#	193555
#	206860
#
# Disc length: 2914 seconds
#
# Revision: 0
# Processed by: cddbd v1.5.2PL0 Copyright (c) Steve Scherf et al.
# Submitted via: CDex 1.51
#
DISCID=bf0b600e
DTITLE=OWL Records - MYSTICAL IRELAND
DYEAR=1900
DGENRE=New Age
TTITLE0=Red is the Rose
TTITLE1=Lark in the Clear Air
TTITLE2=She Move Through the Fair
TTITLE3=Eileen Og
TTITLE4=My Lagan Love
TTITLE5=Rose of Tralee
TTITLE6=Nora Lee
TTITLE7=My Singing Bird
TTITLE8=The Spinning Wheel
TTITLE9=Carlingford
TTITLE10=Emigrant's Letter
TTITLE11=Town I Love so Well
TTITLE12=Home Again in Eireann
TTITLE13=The Sally Garden
EXTD=
EXTT0=
EXTT1=
EXTT2=
EXTT3=
EXTT4=
EXTT5=
EXTT6=
EXTT7=
EXTT8=
EXTT9=
EXTT10=
EXTT11=
EXTT12=
EXTT13=
PLAYORDER=
